<svg width="1553" height="801" viewBox="0 0 1553 801" fill="none" xmlns="http://www.w3.org/2000/svg">
<path fill-rule="evenodd" clip-rule="evenodd" d="M5.85786 5.85786C13.6684 -1.95262 26.3316 -1.95262 34.1421 5.85786L400.25 371.966L766.358 5.85786C770.109 2.10714 775.196 0 780.5 0H1533C1541.09 0 1548.38 4.87284 1551.48 12.3463C1554.57 19.8198 1552.86 28.4222 1547.14 34.1421L1230.14 351.142C1226.39 354.893 1221.3 357 1216 357H800.5V780.5C800.5 788.589 795.627 795.882 788.154 798.978C780.68 802.073 772.078 800.362 766.358 794.642L400.25 428.534L34.1421 794.642C26.3316 802.453 13.6684 802.453 5.85786 794.642C-1.95262 786.832 -1.95262 774.168 5.85786 766.358L371.966 400.25L5.85786 34.1421C-1.95262 26.3316 -1.95262 13.6684 5.85786 5.85786ZM428.534 400.25L760.5 732.216V337C760.5 325.954 769.454 317 780.5 317H1207.72L1484.72 40H788.784L428.534 400.25Z" fill="white"/>
<path fill-rule="evenodd" clip-rule="evenodd" d="M5.85786 5.85786C13.6684 -1.95262 26.3316 -1.95262 34.1421 5.85786L400.25 371.966L766.358 5.85786C770.109 2.10714 775.196 0 780.5 0H1533C1541.09 0 1548.38 4.87284 1551.48 12.3463C1554.57 19.8198 1552.86 28.4222 1547.14 34.1421L1230.14 351.142C1226.39 354.893 1221.3 357 1216 357H800.5V780.5C800.5 788.589 795.627 795.882 788.154 798.978C780.68 802.073 772.078 800.362 766.358 794.642L400.25 428.534L34.1421 794.642C26.3316 802.453 13.6684 802.453 5.85786 794.642C-1.95262 786.832 -1.95262 774.168 5.85786 766.358L371.966 400.25L5.85786 34.1421C-1.95262 26.3316 -1.95262 13.6684 5.85786 5.85786ZM428.534 400.25L760.5 732.216V337C760.5 325.954 769.454 317 780.5 317H1207.72L1484.72 40H788.784L428.534 400.25Z" fill="black" fill-opacity="0.2"/>
<path fill-rule="evenodd" clip-rule="evenodd" d="M5.85786 5.85786C13.6684 -1.95262 26.3316 -1.95262 34.1421 5.85786L400.25 371.966L766.358 5.85786C770.109 2.10714 775.196 0 780.5 0H1533C1541.09 0 1548.38 4.87284 1551.48 12.3463C1554.57 19.8198 1552.86 28.4222 1547.14 34.1421L1230.14 351.142C1226.39 354.893 1221.3 357 1216 357H800.5V780.5C800.5 788.589 795.627 795.882 788.154 798.978C780.68 802.073 772.078 800.362 766.358 794.642L400.25 428.534L34.1421 794.642C26.3316 802.453 13.6684 802.453 5.85786 794.642C-1.95262 786.832 -1.95262 774.168 5.85786 766.358L371.966 400.25L5.85786 34.1421C-1.95262 26.3316 -1.95262 13.6684 5.85786 5.85786ZM428.534 400.25L760.5 732.216V337C760.5 325.954 769.454 317 780.5 317H1207.72L1484.72 40H788.784L428.534 400.25Z" fill="url(#paint0_linear_319_804)"/>
<path d="M1425.46 633.143H1518.99V649H1401.54V481.832H1515.23V497.688H1425.46V555.472H1504.21V571.328H1425.46V633.143Z" fill="white"/>
<path d="M1326.36 481.832H1347.86V649H1324.21L1229.87 509.514V649H1208.37V481.832H1233.37L1326.36 619.974V481.832Z" fill="white"/>
<path d="M1157.3 503.064V627.768C1157.3 641.923 1150.22 649 1136.07 649H1048.18C1034.03 649 1026.95 641.923 1026.95 627.768V503.064C1026.95 488.909 1034.03 481.832 1048.18 481.832H1136.07C1150.22 481.832 1157.3 488.909 1157.3 503.064ZM1134.19 624.812V506.02C1134.19 502.436 1133.65 500.197 1132.57 499.301C1131.68 498.226 1129.44 497.688 1125.85 497.688H1058.66C1055.08 497.688 1052.75 498.226 1051.68 499.301C1050.78 500.197 1050.33 502.436 1050.33 506.02V624.812C1050.33 628.395 1050.78 630.724 1051.68 631.799C1052.75 632.695 1055.08 633.143 1058.66 633.143H1125.85C1129.44 633.143 1131.68 632.695 1132.57 631.799C1133.65 630.724 1134.19 628.395 1134.19 624.812Z" fill="white"/>
<path d="M986.655 481.832V497.688L877.002 633.143H983.968V649H850.126V633.143L959.779 497.688H852.813V481.832H986.655Z" fill="white"/>
<path fill-rule="evenodd" clip-rule="evenodd" d="M850.588 178.289C850.263 156.59 859.764 138.854 871.808 138.674L1163.19 134.312C1175.23 134.131 1185.26 151.575 1185.59 173.274C1185.91 194.973 1176.41 212.709 1164.37 212.89L872.984 217.252C860.94 217.432 850.913 199.988 850.588 178.289Z" fill="url(#paint1_linear_319_804)"/>
<defs>
<linearGradient id="paint0_linear_319_804" x1="1.186e-05" y1="505.316" x2="1146.71" y2="-90.577" gradientUnits="userSpaceOnUse">
<stop stop-color="#E54A64"/>
<stop offset="1" stop-color="#FD9452"/>
</linearGradient>
<linearGradient id="paint1_linear_319_804" x1="1.186e-05" y1="505.316" x2="1146.71" y2="-90.577" gradientUnits="userSpaceOnUse">
<stop stop-color="#E54A64"/>
<stop offset="1" stop-color="#FD9452"/>
</linearGradient>
</defs>
</svg>
